<?xml version="1.0" encoding="UTF-8"?>
<svg id="Layer_2" data-name="Layer 2" xmlns="http://www.w3.org/2000/svg" viewBox="0 0 81.75 118.74">
  <defs>
    <style>
      .cls-1 {
        stroke-width: 0px;
      }
    </style>
  </defs>
  <g id="Layer_1-2" data-name="Layer 1">
    <g>
      <path class="cls-1" d="m63.6,28.99l10.13,2.84C72.59,12.43,57.16-1.3,37.68.1,20.64,1.32,9.01,15.49,7.7,31.96l10.26-2.97c3.55-25.52,41.97-25.58,45.63,0Z"/>
      <path class="cls-1" d="m81.56,36.68c-12.42-1.66-31.6-10.34-43.34-9.58-8.58.55-27.95,8.35-37.94,9.58.66,12.91-.88,38.61,0,49.15,1.34,16.11,12.3,26.16,27.14,30.65,9.07,2.74,15.89,3.06,25.11.54,13.04-3.57,25.25-12.16,28.22-26.06,2.16-10.13.04-41.63.81-54.28Zm-9.18,48.34c-1.25,10.97-9.57,18.08-19.31,21.74-10.95,4.1-16.82,3.66-27.54-1.08-8.14-3.6-15.01-10.96-16.07-20.12-.22-1.91-.41-36.47,0-38.35.52-2.35,4.33-3.66,6.35-4.45,2.14-.84,21.7-6.63,22.95-6.75,4.29-.42,21.75,4.66,26.46,6.48,2.16.83,6.59,2.4,7.16,4.99.4,1.84.21,35.67,0,37.54Z"/>
      <path class="cls-1" d="m38.35,62.88c-1.96-5.41,6.07-6.39,13.91-.95q1.42-4.52,2.83-9.05c-3.85-2.67-10.66-4.3-15.25-3.91-9.06.76-15.02,9.67-11.48,18.23,3.41,8.21,18.15,8.18,16.2,15.39-2.08,7.71-15.34-1.48-16.06-.95q-.88,4.53-1.76,9.05c10.62,7.88,30.41,4.33,28.89-11.61-1.02-10.8-15.98-12.64-17.28-16.2Z"/>
    </g>
  </g>
</svg>