<?xml version="1.0" encoding="UTF-8"?>
<svg id="Layer_2" data-name="Layer 2" xmlns="http://www.w3.org/2000/svg" viewBox="0 0 394.16 118.85">
  <defs>
    <style>
      .cls-1 {
        isolation: isolate;
      }

      .cls-2 {
        stroke-width: 0px;
      }
    </style>
  </defs>
  <g id="Layer_1-2" data-name="Layer 1-2">
    <g>
      <path class="cls-2" d="m63.58,29l10.1,2.8C72.58,12.4,57.08-1.3,37.68.1,20.58,1.3,8.98,15.5,7.68,32l10.3-3c3.5-25.5,41.9-25.6,45.6,0h0Z"/>
      <path class="cls-2" d="m81.58,36.7c-12.5-1.7-31.6-10.4-43.4-9.6-8.6.5-28,8.4-37.9,9.6.7,12.9-.9,38.6,0,49.2,1.3,16.1,12.3,26.2,27.1,30.7,9.1,2.7,15.9,3.1,25.1.5,13-3.6,25.2-12.2,28.2-26.1,2.2-10.2.1-41.7.9-54.3Zm-9.2,48.3c-1.2,11-9.6,18.1-19.3,21.7-11,4.1-16.8,3.7-27.5-1.1-8.1-3.6-15-11-16.1-20.1-.2-1.9-.4-36.5,0-38.3.5-2.3,4.3-3.7,6.4-4.5,2.1-.8,21.7-6.6,23-6.8,4.3-.4,21.8,4.7,26.5,6.5,2.2.8,6.6,2.4,7.2,5,.2,1.9,0,35.8-.2,37.6Z"/>
      <path class="cls-2" d="m38.28,62.9c-2-5.4,6.1-6.4,13.9-1,.9-3,1.9-6,2.8-9-3.8-2.7-10.7-4.3-15.2-3.9-9.1.8-15,9.7-11.5,18.2,3.4,8.2,18.1,8.2,16.2,15.4-2.1,7.7-15.3-1.5-16.1-.9-.6,3-1.2,6-1.8,9.1,10.6,7.9,30.4,4.3,28.9-11.6-.9-10.9-15.9-12.8-17.2-16.3Z"/>
    </g>
  </g>
  <g class="cls-1">
    <g class="cls-1">
      <path class="cls-2" d="m92.98,40.08v-1.75h7.37v2.1c0,2.19,1.56,2.97,4.04,2.97s4.04-.79,4.04-3.06c0-2.54-1.56-4.15-6.66-6.91-6.52-3.54-8.65-6.04-8.65-9.53,0-4.81,4.04-7.61,11.63-7.61s11.34,2.8,11.34,7.7v1.27h-7.37v-1.57c0-2.19-1.42-3.02-3.9-3.02s-3.9.83-3.9,2.93c0,2.23,1.63,3.85,6.73,6.6,6.52,3.54,8.58,5.99,8.58,9.8,0,4.99-4.11,7.78-11.77,7.78s-11.48-2.8-11.48-7.7Z"/>
      <path class="cls-2" d="m126.51,16.73h10.56l8.08,30.61h-7.8l-1.42-6.08v.09h-8.86l-1.42,5.99h-7.23l8.08-30.61Zm8.51,20.47l-3.47-15.13h-.14l-3.4,15.13h7.02Z"/>
      <path class="cls-2" d="m148.48,40.08v-23.35h7.8v23.7c0,2.19,1.49,2.97,3.97,2.97s3.97-.79,3.97-2.97v-23.7h7.51v23.35c0,4.9-3.97,7.7-11.63,7.7s-11.63-2.8-11.63-7.7Z"/>
      <path class="cls-2" d="m176.69,40.08v-16.09c0-4.9,3.97-7.7,11.63-7.7s11.63,2.8,11.63,7.7v2.62h-7.37v-2.93c0-2.19-1.56-3.02-4.04-3.02s-4.04.83-4.04,3.02v16.75c0,2.19,1.56,2.97,4.04,2.97s4.04-.79,4.04-2.97v-5.99h-3.9v-4.37h11.27v10.01c0,4.9-3.97,7.7-11.63,7.7s-11.63-2.8-11.63-7.7Z"/>
      <path class="cls-2" d="m204.98,16.73h21.27v4.37h-13.47v8.09h10.71v4.37h-10.71v9.4h13.47v4.37h-21.27v-30.61Z"/>
      <path class="cls-2" d="m230.71,16.73h11.56c8.08,0,11.55,2.32,11.55,7.04v1.88c0,3.15-1.63,5.16-5.1,6.04v.09c3.9.74,5.17,3.02,5.17,6.47v5.38c0,1.49.07,2.58.85,3.72h-7.94c-.43-.79-.71-1.27-.71-3.76v-5.6c0-2.84-1.35-3.76-4.89-3.76h-2.69v13.12h-7.8v-30.61Zm10.63,13.12c2.91,0,4.68-.79,4.68-3.24v-2.36c0-2.19-1.21-3.15-3.97-3.15h-3.54v8.75h2.84Z"/>
      <path class="cls-2" d="m265.23,21.1h-8.15v-4.37h24.1v4.37h-8.15v26.24h-7.8v-26.24Z"/>
      <path class="cls-2" d="m284.93,16.73h7.8v30.61h-7.8v-30.61Z"/>
      <path class="cls-2" d="m298.54,16.73h21.27v4.37h-13.47v8.09h10.71v4.37h-10.71v9.4h13.47v4.37h-21.27v-30.61Z"/>
      <path class="cls-2" d="m323.07,40.08v-1.75h7.37v2.1c0,2.19,1.56,2.97,4.04,2.97s4.04-.79,4.04-3.06c0-2.54-1.56-4.15-6.66-6.91-6.52-3.54-8.65-6.04-8.65-9.53,0-4.81,4.04-7.61,11.63-7.61s11.34,2.8,11.34,7.7v1.27h-7.37v-1.57c0-2.19-1.42-3.02-3.9-3.02s-3.9.83-3.9,2.93c0,2.23,1.63,3.85,6.73,6.6,6.52,3.54,8.58,5.99,8.58,9.8,0,4.99-4.11,7.78-11.77,7.78s-11.48-2.8-11.48-7.7Z"/>
    </g>
    <g class="cls-1">
      <path class="cls-2" d="m92.98,92.58v-1.75h7.37v2.1c0,2.19,1.56,2.97,4.04,2.97s4.04-.79,4.04-3.06c0-2.54-1.56-4.15-6.66-6.91-6.52-3.54-8.65-6.04-8.65-9.53,0-4.81,4.04-7.61,11.63-7.61s11.34,2.8,11.34,7.7v1.27h-7.37v-1.57c0-2.19-1.42-3.02-3.9-3.02s-3.9.83-3.9,2.93c0,2.23,1.63,3.85,6.73,6.6,6.52,3.54,8.58,5.99,8.58,9.8,0,4.99-4.11,7.79-11.77,7.79s-11.48-2.8-11.48-7.7Z"/>
      <path class="cls-2" d="m120.7,69.23h21.27v4.37h-13.47v8.09h10.71v4.37h-10.71v9.4h13.47v4.37h-21.27v-30.61Z"/>
      <path class="cls-2" d="m146.43,69.23h7.8v26.24h12.83v4.37h-20.63v-30.61Z"/>
      <path class="cls-2" d="m170.81,69.23h20.63v4.37h-12.83v8.53h10.07v4.37h-10.07v13.34h-7.8v-30.61Z"/>
      <path class="cls-2" d="m205.19,92.58v-1.75h7.37v2.1c0,2.19,1.56,2.97,4.04,2.97s4.04-.79,4.04-3.06c0-2.54-1.56-4.15-6.66-6.91-6.52-3.54-8.65-6.04-8.65-9.53,0-4.81,4.04-7.61,11.63-7.61s11.34,2.8,11.34,7.7v1.27h-7.37v-1.57c0-2.19-1.42-3.02-3.9-3.02s-3.9.83-3.9,2.93c0,2.23,1.63,3.85,6.73,6.6,6.52,3.54,8.58,5.99,8.58,9.8,0,4.99-4.11,7.79-11.77,7.79s-11.48-2.8-11.48-7.7Z"/>
      <path class="cls-2" d="m239,73.6h-8.15v-4.37h24.1v4.37h-8.15v26.24h-7.8v-26.24Z"/>
      <path class="cls-2" d="m257.85,92.58v-16.09c0-4.9,4.18-7.7,11.84-7.7s11.84,2.8,11.84,7.7v16.09c0,4.9-4.18,7.7-11.84,7.7s-11.84-2.8-11.84-7.7Zm15.88.31v-16.71c0-2.19-1.56-3.02-4.04-3.02s-4.04.83-4.04,3.02v16.71c0,2.19,1.56,3.02,4.04,3.02s4.04-.83,4.04-3.02Z"/>
      <path class="cls-2" d="m286.78,69.23h11.55c8.08,0,11.56,2.32,11.56,7.04v1.88c0,3.15-1.63,5.16-5.1,6.04v.09c3.9.74,5.18,3.02,5.18,6.47v5.38c0,1.49.07,2.58.85,3.72h-7.94c-.43-.79-.71-1.27-.71-3.76v-5.6c0-2.84-1.35-3.76-4.89-3.76h-2.69v13.12h-7.8v-30.61Zm10.63,13.12c2.91,0,4.68-.79,4.68-3.24v-2.36c0-2.19-1.21-3.15-3.97-3.15h-3.54v8.75h2.84Z"/>
      <path class="cls-2" d="m321.37,69.23h10.56l8.08,30.61h-7.8l-1.42-6.08v.09h-8.86l-1.42,5.99h-7.23l8.08-30.61Zm8.51,20.47l-3.47-15.13h-.14l-3.4,15.13h7.02Z"/>
      <path class="cls-2" d="m343.06,92.58v-16.09c0-4.9,3.97-7.7,11.63-7.7s11.63,2.8,11.63,7.7v2.62h-7.37v-2.93c0-2.19-1.56-3.02-4.04-3.02s-4.04.83-4.04,3.02v16.75c0,2.19,1.56,2.97,4.04,2.97s4.04-.79,4.04-2.97v-5.99h-3.9v-4.37h11.27v10.01c0,4.9-3.97,7.7-11.63,7.7s-11.63-2.8-11.63-7.7Z"/>
      <path class="cls-2" d="m371.34,69.23h21.27v4.37h-13.47v8.09h10.71v4.37h-10.71v9.4h13.47v4.37h-21.27v-30.61Z"/>
    </g>
  </g>
</svg>