<?xml version="1.0" encoding="UTF-8"?>
<svg id="Layer_2" data-name="Layer 2" xmlns="http://www.w3.org/2000/svg" viewBox="0 0 220.38 118.74">
  <defs>
    <style>
      .cls-1 {
        stroke-width: 0px;
      }
    </style>
  </defs>
  <g id="Layer_1-2" data-name="Layer 1">
    <g>
      <path class="cls-1" d="m63.6,28.99l10.13,2.84C72.59,12.43,57.16-1.3,37.68.1,20.64,1.32,9.01,15.49,7.7,31.96l10.26-2.97c3.55-25.52,41.97-25.58,45.63,0Z"/>
      <path class="cls-1" d="m81.56,36.68c-12.42-1.66-31.6-10.34-43.34-9.58-8.58.55-27.95,8.35-37.94,9.58.66,12.91-.88,38.61,0,49.15,1.34,16.11,12.3,26.16,27.14,30.65,9.07,2.74,15.89,3.06,25.11.54,13.04-3.57,25.25-12.16,28.22-26.06,2.16-10.13.04-41.63.81-54.28Zm-9.18,48.34c-1.25,10.97-9.57,18.08-19.31,21.74-10.95,4.1-16.82,3.66-27.54-1.08-8.14-3.6-15.01-10.96-16.07-20.12-.22-1.91-.41-36.47,0-38.35.52-2.35,4.33-3.66,6.35-4.45,2.14-.84,21.7-6.63,22.95-6.75,4.29-.42,21.75,4.66,26.46,6.48,2.16.83,6.59,2.4,7.16,4.99.4,1.84.21,35.67,0,37.54Z"/>
      <g>
        <path class="cls-1" d="m89.73,49.3v-1.24h3.21v1.48c0,1.55.68,2.1,1.76,2.1s1.76-.56,1.76-2.16c0-1.79-.68-2.94-2.91-4.88-2.84-2.5-3.77-4.27-3.77-6.74,0-3.4,1.76-5.38,5.07-5.38s4.95,1.98,4.95,5.44v.9h-3.22v-1.11c0-1.55-.62-2.13-1.7-2.13s-1.7.59-1.7,2.07c0,1.58.71,2.72,2.94,4.67,2.84,2.5,3.74,4.24,3.74,6.92,0,3.52-1.79,5.5-5.13,5.5s-5.01-1.98-5.01-5.44Z"/>
        <path class="cls-1" d="m104.35,32.79h4.61l3.52,21.64h-3.4l-.62-4.3v.06h-3.86l-.62,4.24h-3.15l3.52-21.64Zm3.71,14.47l-1.51-10.7h-.06l-1.48,10.7h3.06Z"/>
        <path class="cls-1" d="m113.93,49.3v-16.51h3.4v16.76c0,1.55.65,2.1,1.73,2.1s1.73-.56,1.73-2.1v-16.76h3.28v16.51c0,3.46-1.73,5.44-5.07,5.44s-5.07-1.98-5.07-5.44Z"/>
        <path class="cls-1" d="m126.24,49.3v-11.38c0-3.46,1.73-5.44,5.07-5.44s5.07,1.98,5.07,5.44v1.85h-3.22v-2.07c0-1.55-.68-2.13-1.76-2.13s-1.76.59-1.76,2.13v11.84c0,1.55.68,2.1,1.76,2.1s1.76-.56,1.76-2.1v-4.24h-1.7v-3.09h4.92v7.08c0,3.46-1.73,5.44-5.07,5.44s-5.07-1.98-5.07-5.44Z"/>
        <path class="cls-1" d="m138.57,32.79h9.27v3.09h-5.87v5.72h4.67v3.09h-4.67v6.65h5.87v3.09h-9.27v-21.64Z"/>
        <path class="cls-1" d="m149.79,32.79h5.04c3.52,0,5.04,1.64,5.04,4.98v1.33c0,2.23-.71,3.65-2.23,4.27v.06c1.7.53,2.26,2.13,2.26,4.58v3.8c0,1.05.03,1.82.37,2.63h-3.46c-.19-.56-.31-.9-.31-2.66v-3.96c0-2.01-.59-2.66-2.13-2.66h-1.17v9.27h-3.4v-21.64Zm4.64,9.27c1.27,0,2.04-.56,2.04-2.29v-1.67c0-1.55-.53-2.23-1.73-2.23h-1.55v6.18h1.24Z"/>
        <path class="cls-1" d="m164.84,35.89h-3.56v-3.09h10.51v3.09h-3.56v18.55h-3.4v-18.55Z"/>
        <path class="cls-1" d="m173.43,32.79h3.4v21.64h-3.4v-21.64Z"/>
        <path class="cls-1" d="m179.37,32.79h9.27v3.09h-5.87v5.72h4.67v3.09h-4.67v6.65h5.87v3.09h-9.27v-21.64Z"/>
        <path class="cls-1" d="m190.06,49.3v-1.24h3.21v1.48c0,1.55.68,2.1,1.76,2.1s1.76-.56,1.76-2.16c0-1.79-.68-2.94-2.91-4.88-2.84-2.5-3.77-4.27-3.77-6.74,0-3.4,1.76-5.38,5.07-5.38s4.95,1.98,4.95,5.44v.9h-3.22v-1.11c0-1.55-.62-2.13-1.7-2.13s-1.7.59-1.7,2.07c0,1.58.71,2.72,2.94,4.67,2.84,2.5,3.74,4.24,3.74,6.92,0,3.52-1.79,5.5-5.13,5.5s-5.01-1.98-5.01-5.44Z"/>
        <path class="cls-1" d="m89.73,86.39v-1.24h3.21v1.48c0,1.55.68,2.1,1.76,2.1s1.76-.56,1.76-2.16c0-1.79-.68-2.94-2.91-4.88-2.84-2.5-3.77-4.27-3.77-6.74,0-3.4,1.76-5.38,5.07-5.38s4.95,1.98,4.95,5.44v.9h-3.22v-1.11c0-1.55-.62-2.13-1.7-2.13s-1.7.59-1.7,2.07c0,1.58.71,2.72,2.94,4.67,2.84,2.5,3.74,4.23,3.74,6.92,0,3.52-1.79,5.5-5.13,5.5s-5.01-1.98-5.01-5.44Z"/>
        <path class="cls-1" d="m101.82,69.88h9.27v3.09h-5.87v5.72h4.67v3.09h-4.67v6.65h5.87v3.09h-9.27v-21.64Z"/>
        <path class="cls-1" d="m113.04,69.88h3.4v18.55h5.6v3.09h-9v-21.64Z"/>
        <path class="cls-1" d="m123.67,69.88h9v3.09h-5.6v6.03h4.39v3.09h-4.39v9.43h-3.4v-21.64Z"/>
        <path class="cls-1" d="m138.66,86.39v-1.24h3.21v1.48c0,1.55.68,2.1,1.76,2.1s1.76-.56,1.76-2.16c0-1.79-.68-2.94-2.91-4.88-2.84-2.5-3.77-4.27-3.77-6.74,0-3.4,1.76-5.38,5.07-5.38s4.95,1.98,4.95,5.44v.9h-3.22v-1.11c0-1.55-.62-2.13-1.7-2.13s-1.7.59-1.7,2.07c0,1.58.71,2.72,2.94,4.67,2.84,2.5,3.74,4.23,3.74,6.92,0,3.52-1.79,5.5-5.13,5.5s-5.01-1.98-5.01-5.44Z"/>
        <path class="cls-1" d="m153.4,72.98h-3.56v-3.09h10.51v3.09h-3.56v18.55h-3.4v-18.55Z"/>
        <path class="cls-1" d="m161.62,86.39v-11.38c0-3.46,1.82-5.44,5.16-5.44s5.16,1.98,5.16,5.44v11.38c0,3.46-1.82,5.44-5.16,5.44s-5.16-1.98-5.16-5.44Zm6.92.22v-11.81c0-1.55-.68-2.13-1.76-2.13s-1.76.59-1.76,2.13v11.81c0,1.55.68,2.13,1.76,2.13s1.76-.59,1.76-2.13Z"/>
        <path class="cls-1" d="m174.23,69.88h5.04c3.52,0,5.04,1.64,5.04,4.98v1.33c0,2.23-.71,3.65-2.23,4.27v.06c1.7.53,2.26,2.13,2.26,4.58v3.8c0,1.05.03,1.82.37,2.63h-3.46c-.19-.56-.31-.9-.31-2.66v-3.96c0-2.01-.59-2.66-2.13-2.66h-1.17v9.27h-3.4v-21.64Zm4.64,9.27c1.27,0,2.04-.56,2.04-2.29v-1.67c0-1.55-.53-2.23-1.73-2.23h-1.55v6.18h1.24Z"/>
        <path class="cls-1" d="m189.32,69.88h4.61l3.52,21.64h-3.4l-.62-4.3v.06h-3.86l-.62,4.24h-3.15l3.52-21.64Zm3.71,14.47l-1.51-10.7h-.06l-1.48,10.7h3.06Z"/>
        <path class="cls-1" d="m198.78,86.39v-11.38c0-3.46,1.73-5.44,5.07-5.44s5.07,1.98,5.07,5.44v1.85h-3.22v-2.07c0-1.55-.68-2.13-1.76-2.13s-1.76.59-1.76,2.13v11.84c0,1.55.68,2.1,1.76,2.1s1.76-.56,1.76-2.1v-4.24h-1.7v-3.09h4.92v7.08c0,3.46-1.73,5.44-5.07,5.44s-5.07-1.98-5.07-5.44Z"/>
        <path class="cls-1" d="m211.11,69.88h9.27v3.09h-5.87v5.72h4.67v3.09h-4.67v6.65h5.87v3.09h-9.27v-21.64Z"/>
      </g>
      <path class="cls-1" d="m27.62,82.6v-2.54h8.33v2.82c0,3.25,1.55,5.01,4.59,5.01,2.75,0,4.59-1.62,4.59-5.08,0-4.16-1.69-5.93-7.55-9.81-7.48-4.94-9.81-9.11-9.81-15.39,0-7.91,4.52-12.85,13.06-12.85s12.78,4.94,12.78,12.99v1.76h-8.33v-1.98c0-3.32-1.41-5.08-4.38-5.08-2.75,0-4.38,1.62-4.38,4.87,0,3.67,1.84,5.51,7.69,9.32,7.62,4.94,9.74,9.18,9.74,15.74,0,8.19-4.66,13.2-13.34,13.2s-12.99-5.01-12.99-12.99Z"/>
    </g>
  </g>
</svg>